# xmcd
#
# Track frame offsets:
#	150
#	19919
#	40910
#	59885
#	78325
#	104494
#	136852
#	154807
#	183706
#	205426
#	226557
#	242947
#
# Disc length: 3572 seconds
#
# Revision: 0
# Processed by: cddbd v1.5.2PL0 Copyright (c) Steve Scherf et al.
# Submitted via: audiograbber 1.83.01
#
DISCID=a70df20c
DTITLE=CD Pool - Urban February 2011 CD2
DYEAR=2011
DGENRE=R&B
TTITLE0=Waka Flocka Flame Ft Roscoe Dash and Wale - No Hands (Clean Version)
TTITLE1=Nicki Minaj Ft Drake - Moment 4 Life (Explicit)
TTITLE2=Bobby C Sound TV - Electroglide In Blue
TTITLE3=Slackah The Beatchild - Down
TTITLE4=Mighty Moe - Dangerous (Zed Bias Remix)
TTITLE5=AMS Vs Tim Deluxe - It Just Won't Do (DJ Q Remix)
TTITLE6=Max Sedgley Ft Tasita D'Mour - Superstrong (Basement Freaks Remix)
TTITLE7=Tom Glide - Love Is Comin' Up (Neil Thompson's ReGrooved Mix)
TTITLE8=R Kelly - Love Letter (Album Version)
TTITLE9=Etana - People Talk
TTITLE10=Lucy Pearl - Don't Mess With My Man (Album Version)
TTITLE11=The Temptations - The Jones' (12'' Surgery Mix)
EXTD=
EXTT0=
EXTT1=
EXTT2=
EXTT3=
EXTT4=
EXTT5=
EXTT6=
EXTT7=
EXTT8=
EXTT9=
EXTT10=
EXTT11=
PLAYORDER=
